HIERARCHY
ROOT Hips
{
	OFFSET	0.00	0.00	0.00
	CHANNELS 6 Xposition Yposition Zposition Zrotation Xrotation Yrotation
	JOINT LeftUpLeg
	{
		OFFSET	 0.126116	-0.014019	-0.065224
		CHANNELS 3 Zrotation Xrotation Yrotation
		JOINT LeftLeg
		{
			OFFSET	 0.000000	 0.000000	 0.569914
			CHANNELS 3 Zrotation Xrotation Yrotation
			JOINT LeftFoot
			{
				OFFSET	 0.000000	 0.000000	 0.544423
				CHANNELS 3 Zrotation Xrotation Yrotation
				JOINT LeftToeBase
				{
					OFFSET	 0.000000	 0.000000	 0.207117
					CHANNELS 3 Zrotation Xrotation Yrotation
					End Site
					{
						OFFSET	 0.000000	 0.000000	 0.207117
					}
				}
			}
		}
	}
	JOINT RightUpLeg
	{
		OFFSET	-0.124023	-0.008373	-0.065224
		CHANNELS 3 Zrotation Xrotation Yrotation
		JOINT RightLeg
		{
			OFFSET	 0.000000	 0.000000	 0.570047
			CHANNELS 3 Zrotation Xrotation Yrotation
			JOINT RightFoot
			{
				OFFSET	 0.000000	 0.000000	 0.544354
				CHANNELS 3 Zrotation Xrotation Yrotation
				JOINT RightToeBase
				{
					OFFSET	 0.000000	 0.000000	 0.207540
					CHANNELS 3 Zrotation Xrotation Yrotation
					End Site
					{
						OFFSET	 0.000000	 0.000000	 0.207540
					}
				}
			}
		}
	}
	JOINT Spine
	{
		OFFSET	 0.000184	-0.007763	 0.117403
		CHANNELS 3 Zrotation Xrotation Yrotation
		JOINT Spine1
		{
			OFFSET	 0.000000	 0.000000	 0.137269
			CHANNELS 3 Zrotation Xrotation Yrotation
			JOINT Spine2
			{
				OFFSET	 0.000000	 0.000000	 0.156879
				CHANNELS 3 Zrotation Xrotation Yrotation
				JOINT LeftShoulder
				{
					OFFSET	 0.080501	-0.002496	 0.160144
					CHANNELS 3 Zrotation Xrotation Yrotation
					JOINT LeftArm
					{
						OFFSET	 0.000000	 0.000000	 0.164363
						CHANNELS 3 Zrotation Xrotation Yrotation
						JOINT LeftForeArm
						{
							OFFSET	 0.000000	 0.000000	 0.364576
							CHANNELS 3 Zrotation Xrotation Yrotation
							JOINT LeftHand
							{
								OFFSET	 0.000000	 0.000000	 0.360812
								CHANNELS 3 Zrotation Xrotation Yrotation
								JOINT LeftHandIndex1
								{
									OFFSET	 0.000000	 0.000000	 0.086006
									CHANNELS 3 Zrotation Xrotation Yrotation
									JOINT LeftHandIndex2
									{
										OFFSET	 0.000000	 0.000000	 0.047236
										CHANNELS 3 Zrotation Xrotation Yrotation
										JOINT LeftHandIndex3
										{
											OFFSET	-0.004284	-0.000551	 0.038166
											CHANNELS 3 Zrotation Xrotation Yrotation
											End Site
											{
												OFFSET	-0.004284	-0.000551	 0.038166
											}
										}
									}
								}
							}
						}
					}
				}
				JOINT Neck
				{
					OFFSET	 0.000000	 0.000000	 0.176489
					CHANNELS 3 Zrotation Xrotation Yrotation
					JOINT Head
					{
						OFFSET	 0.000000	-0.001747	 0.077940
						CHANNELS 3 Zrotation Xrotation Yrotation
						End Site
						{
							OFFSET	 0.000000	-0.001747	 0.077940
						}
					}
				}
				JOINT RightShoulder
				{
					OFFSET	-0.080363	 0.000306	 0.159706
					CHANNELS 3 Zrotation Xrotation Yrotation
					JOINT RightArm
					{
						OFFSET	 0.000000	 0.000000	 0.164196
						CHANNELS 3 Zrotation Xrotation Yrotation
						JOINT RightForeArm
						{
							OFFSET	 0.000000	 0.000000	 0.365611
							CHANNELS 3 Zrotation Xrotation Yrotation
							JOINT RightHand
							{
								OFFSET	 0.000000	 0.000000	 0.360648
								CHANNELS 3 Zrotation Xrotation Yrotation
								JOINT RightHandIndex1
								{
									OFFSET	 0.000000	 0.000000	 0.069977
									CHANNELS 3 Zrotation Xrotation Yrotation
									JOINT RightHandIndex2
									{
										OFFSET	 0.000000	 0.000000	 0.052305
										CHANNELS 3 Zrotation Xrotation Yrotation
										JOINT RightHandIndex3
										{
											OFFSET	 0.009002	-0.000782	 0.042196
											CHANNELS 3 Zrotation Xrotation Yrotation
											End Site
											{
												OFFSET	 0.009002	-0.000782	 0.042196
											}
										}
									}
								}
							}
						}
					}
				}
			}
		}
	}
}
MOTION
Frames:    9
Frame Time: 0.03333334
 3.230030	 6.587476	 0.185477	-105.469700	-2.112833	-1.230348	 7.333729	 20.984910	-176.897800	-3.536524	-11.629820	 1.493765	 3.777045	 84.423290	-0.344424	-2.294719	 40.292500	-0.283495	 5.199483	-35.860970	-177.647000	 0.512536	-41.507100	 4.586968	 129.512000	 89.739060	-123.937900	 2.368480	 31.509240	 0.069033	 24.517980	 3.728377	 2.382832	-13.325630	-0.392715	 0.206540	-15.771990	-2.243975	-1.868134	-91.776180	 78.527400	-180.000000	 35.841420	 60.509320	-54.079940	-24.077780	 11.148640	-46.304030	 36.848450	-4.703582	-3.340188	-3.812334	 37.924440	-2.927599	-2.450526	 36.184240	 0.754587	-1.378229	 35.397820	-2.634230	 1.225293	 2.177749	-4.964072	-2.651227	-9.797555	 2.839801	 89.782120	 78.203930	 180.000000	-37.535460	 72.297620	 34.934210	 18.665140	 5.234294	 32.936230	-46.602590	-7.939706	 6.251747	 6.437017	 35.671460	-0.771858	 2.830251	 35.756010	-7.813440	-2.350882	 35.473990	 5.254307
 3.151276	 6.612816	 0.182655	-104.710600	-1.953028	-1.323310	 7.713179	 24.426680	-177.850200	-2.970064	-11.610550	 1.638055	 4.949445	 83.673920	-0.788425	-2.230535	 45.004780	-0.418993	 4.964574	-35.860760	-177.425100	 0.032280	-37.756580	 3.709877	 151.580600	 89.385800	-146.281000	 2.361405	 32.635690	 0.094787	 19.226690	 3.529974	 2.004785	-13.298760	-0.604208	-0.036741	-15.579640	-2.486696	-1.973109	-91.776180	 78.527420	-180.000000	 37.346490	 61.021770	-55.467330	-21.163570	 7.084504	-44.826890	 42.863020	-5.025160	-2.831470	-3.812334	 37.924440	-2.927599	-2.450526	 36.184240	 0.754587	-1.378229	 35.397820	-2.634230	 1.261870	 2.073915	-5.031602	-2.528715	-9.914835	 3.596368	 89.782120	 78.203930	 180.000000	-35.751980	 73.234930	 32.936770	 15.225190	 1.658838	 29.258070	-53.383240	-8.557090	 5.354812	 6.437017	 35.671460	-0.771858	 2.830251	 35.756010	-7.813440	-2.350882	 35.473990	 5.254307
 3.070173	 6.641377	 0.179885	-103.955400	-2.129307	-1.282988	 8.366106	 27.839690	-179.664300	-1.813818	-11.578300	 1.854621	 5.855836	 80.296880	-0.433202	-2.162690	 48.781770	-0.542262	 4.764991	-34.408650	-177.801500	 1.480119	-39.569010	 4.795795	 32.930560	 89.612850	-26.694770	 2.377229	 29.938180	 0.033882	 13.127730	 3.340187	 1.868370	-13.233900	-0.644225	-0.371347	-15.216720	-2.348829	-2.046053	-91.776180	 78.527400	-180.000000	 39.499870	 62.239640	-56.124470	-18.259850	 3.221359	-41.486900	 47.669300	-5.232253	-2.417883	-3.812334	 37.924440	-2.927599	-2.450526	 36.184240	 0.754587	-1.378229	 35.397820	-2.634230	 1.433488	 2.400290	-5.126665	-2.329249	-10.120820	 4.150158	 89.782120	 78.203870	 180.000000	-34.489040	 73.784820	 31.502210	 11.207110	-1.242032	 25.554580	-58.859130	-8.976941	 4.588878	 6.437017	 35.671460	-0.771858	 2.830251	 35.756010	-7.813440	-2.350882	 35.473990	 5.254307
 2.985343	 6.672344	 0.178617	-102.884400	-2.276160	-1.087103	 9.210438	 31.025480	 177.896600	-0.896370	-11.559860	 1.968311	 5.375453	 73.222410	 1.152649	-2.103788	 51.441590	-0.639368	 3.649290	-32.214050	-178.784400	 4.032451	-42.881400	 6.406928	 3.578986	 87.503620	 3.604551	 2.385366	 28.228530	-0.003467	 6.008514	 3.048063	 1.490005	-13.238310	-0.656005	-0.710188	-14.775070	-2.125349	-2.209085	-91.776180	 78.527400	-180.000000	 41.903190	 64.043230	-55.848530	-14.569630	-0.531733	-36.289950	 51.974830	-5.394154	-2.039163	-3.812334	 37.924440	-2.927599	-2.450526	 36.184240	 0.754587	-1.378229	 35.397820	-2.634230	 1.611581	 2.938541	-5.070579	-2.142932	-10.159620	 4.369613	 89.782140	 78.203830	 180.000000	-32.409330	 74.131420	 28.836200	 6.885879	-3.599043	 22.026240	-63.103160	-9.267642	 3.948449	 6.437017	 35.671460	-0.771858	 2.830251	 35.756010	-7.813440	-2.350882	 35.473990	 5.254307
 2.908098	 6.703425	 0.183571	-101.564500	-2.621280	-1.251091	 7.471072	 26.313890	 176.768000	-0.999645	-25.065640	 1.727336	 3.494473	 66.389070	 0.212285	-2.149369	 49.424990	-0.564877	 2.101429	-30.049040	-179.229000	 5.184084	-46.424410	 6.838675	 3.524797	 84.265440	 3.030195	 2.396739	 25.101350	-0.069658	-1.504246	 2.608123	 1.430416	-13.161260	-0.528247	-0.840031	-14.594710	-1.876090	-2.247844	-91.776180	 78.527400	-180.000000	 44.126870	 66.218080	-55.777820	-10.155210	-3.722793	-29.162330	 55.862900	-5.483304	-1.773781	-3.812334	 37.924440	-2.927599	-2.450526	 36.184240	 0.754587	-1.378229	 35.397820	-2.634230	 1.689284	 3.040313	-4.858483	-2.017732	-9.780793	 4.237519	 89.782120	 78.203870	 180.000000	-32.189670	 74.092630	 28.703220	 2.249964	-5.414768	 18.627690	-66.007740	-9.456993	 3.456973	 6.437017	 35.671460	-0.771858	 2.830251	 35.756010	-7.813440	-2.350882	 35.473990	 5.254307
 2.829878	 6.738261	 0.192308	-100.316000	-2.985281	-0.409899	 7.751378	 15.126450	 173.134800	-1.828460	-47.829560	 0.523915	 1.498423	 57.164180	 0.671607	-2.318550	 38.074550	-0.225164	 0.971680	-26.128490	 179.025500	 6.176247	-47.902950	 7.049367	 3.211970	 84.520200	 3.187526	 2.406986	 19.444520	-0.184105	-10.383390	 3.079449	 0.658976	-12.895640	-0.485247	-1.103408	-14.001830	-1.797548	-2.282334	-91.776180	 78.527420	-180.000000	 43.986110	 68.983840	-53.540120	-5.020173	-6.097009	-24.033900	 59.216760	-5.563926	-1.519226	-3.812334	 37.924440	-2.927599	-2.450526	 36.184240	 0.754587	-1.378229	 35.397820	-2.634230	 1.565454	 2.891549	-4.675330	-2.078980	-9.137843	 3.681853	 89.782120	 78.203870	 180.000000	-33.689510	 73.285990	 31.107820	-3.885138	-7.129400	 18.244710	-68.119970	-9.572746	 3.114066	 6.437017	 35.671460	-0.771858	 2.830251	 35.756010	-7.813440	-2.350882	 35.473990	 5.254307
 2.743595	 6.775193	 0.201694	-98.353090	-3.148570	 2.513045	 5.630912	 2.673115	 169.488300	-5.529948	-67.448780	-5.856614	-1.028649	 58.231130	 0.483332	-2.352879	 34.088770	-0.127151	 0.213159	-19.608170	 175.089100	 7.485669	-45.577410	 6.888765	 1.185080	 86.841230	 5.793450	 2.407687	 17.659620	-0.219186	-21.145570	 4.030329	-2.287218	-12.652000	-0.494357	-1.701355	-13.667270	-2.672738	-2.425350	-91.776180	 78.527400	-180.000000	 41.383010	 71.477810	-49.542140	-0.280971	-7.947894	-22.086710	 59.806450	-5.611501	-1.375921	-3.812334	 37.924440	-2.927599	-2.450526	 36.184240	 0.754587	-1.378229	 35.397820	-2.634230	 1.233004	 2.967392	-4.458290	-2.266191	-9.413956	 2.792283	 89.782090	 78.203830	-180.000000	-37.195280	 71.471060	 37.537260	-11.078350	-9.788375	 20.652810	-68.616630	-9.600860	 3.024029	 6.437017	 35.671460	-0.771858	 2.830251	 35.756010	-7.813440	-2.350882	 35.473990	 5.254307
 2.699567	 6.792579	 0.205175	-97.763400	-3.150584	 2.781913	 3.619656	-3.704666	 170.175100	-6.478526	-73.507050	-8.352052	-1.126738	 63.287120	 0.257966	-2.331076	 36.752320	-0.191758	 0.401356	-16.978990	 174.371600	 7.576163	-44.935750	 6.852923	-2.617270	 88.694640	 9.807940	 2.407675	 17.794910	-0.216539	-26.360430	 4.028321	-2.520076	-12.309230	-0.522283	-1.596565	-13.648780	-2.882634	-2.260563	-91.776180	 78.527400	-180.000000	 39.360770	 72.098200	-46.800840	 2.880283	-9.321119	-22.148760	 59.320200	-5.606337	-1.408137	-3.812334	 37.924440	-2.927599	-2.450526	 36.184240	 0.754587	-1.378229	 35.397820	-2.634230	 0.996911	 2.981279	-4.298370	-2.388106	-9.554548	 2.143270	 89.782120	 78.203870	 180.000000	-38.385970	 70.274810	 40.890260	-14.745950	-11.729580	 22.175860	-67.999600	-9.566944	 3.134578	 6.437017	 35.671460	-0.771858	 2.830251	 35.756010	-7.813440	-2.350882	 35.473990	 5.254307
 2.636822	 6.815448	 0.207168	-97.682560	-3.090793	 3.575586	 1.522261	-11.374190	 170.978900	-6.873926	-76.260990	-10.078330	-1.226506	 72.229970	-0.178242	-2.294241	 40.334010	-0.284613	 0.744205	-13.387820	 173.100500	 7.406377	-44.437300	 6.636339	-169.913100	 88.991670	 177.102100	 2.407012	 19.406000	-0.184863	-32.835030	 4.355409	-3.373047	-11.413570	-0.555669	-1.424096	-13.451240	-3.265248	-1.831899	-91.776180	 78.527400	 180.000000	 37.789700	 72.344850	-43.205040	 8.032236	-12.311590	-24.105570	 57.271180	-5.545738	-1.623907	-3.812334	 37.924440	-2.927599	-2.450526	 36.184240	 0.754587	-1.378229	 35.397820	-2.634230	 0.557652	 2.996675	-3.935752	-2.631825	-9.279637	 1.012207	 89.782120	 78.203930	 180.000000	-39.091230	 68.238660	 44.413670	-19.359900	-15.283440	 25.033020	-65.355140	-9.445946	 3.519457	 6.437017	 35.671460	-0.771858	 2.830251	 35.756010	-7.813440	-2.350882	 35.473990	 5.254307
